<svg width="433" height="200" viewBox="0 0 433 200" fill="none" xmlns="http://www.w3.org/2000/svg">
<path d="M260.16 36.77C256.65 33.8 249.63 30.11 244.32 28.04L238.38 36.14C243.78 38.39 250.62 42.53 253.77 45.59L260.16 36.77ZM255.3 60.35C251.88 57.56 244.86 54.14 239.55 52.25L233.79 60.35C239.1 62.6 245.85 66.38 249.18 69.35L255.3 60.35ZM245.58 110.75C250.26 102.02 255.12 91.58 259.17 81.95L250.8 75.56C246.12 86.09 240.18 97.52 235.95 104.45L245.58 110.75ZM303.54 48.56C303.09 69.8 302.46 77.09 301.29 79.07C300.57 80.15 299.94 80.51 298.86 80.51C298.14 80.51 297.24 80.51 296.07 80.42V55.58H269.34C270.96 53.42 272.4 51.08 273.84 48.56H303.54ZM285.9 74.57H275.19V64.85H285.9V74.57ZM282.3 101.48C276.18 101.48 275.19 100.76 275.19 96.35V83.84H294.9C295.62 86.18 296.07 88.7 296.25 90.68C299.76 90.77 303 90.68 305.16 90.23C307.5 89.69 309.12 88.79 310.83 86.27C313.17 82.85 313.8 71.87 314.34 43.16C314.43 41.81 314.43 38.57 314.43 38.57H278.88C280.05 35.87 281.13 33.08 282.03 30.29L271.5 27.68C268.08 38.48 261.96 49.37 254.58 55.94C257.19 57.38 261.78 60.71 263.76 62.51L264.75 61.43V96.44C264.75 108.14 268.71 111.29 281.49 111.29H302.28C313.62 111.29 316.68 107.42 318.21 94.01C315.33 93.38 310.83 91.58 308.4 90.05C307.68 99.68 306.87 101.48 301.47 101.48H282.3ZM359.16 36.77C355.65 33.8 348.63 30.11 343.32 28.04L337.38 36.14C342.78 38.39 349.62 42.53 352.77 45.59L359.16 36.77ZM354.3 60.35C350.88 57.56 343.86 54.14 338.55 52.25L332.79 60.35C338.1 62.6 344.85 66.38 348.18 69.35L354.3 60.35ZM344.58 110.75C349.26 102.02 354.12 91.58 358.17 81.95L349.8 75.56C345.12 86.09 339.18 97.52 334.95 104.45L344.58 110.75ZM402.54 48.56C402.09 69.8 401.46 77.09 400.29 79.07C399.57 80.15 398.94 80.51 397.86 80.51C397.14 80.51 396.24 80.51 395.07 80.42V55.58H368.34C369.96 53.42 371.4 51.08 372.84 48.56H402.54ZM384.9 74.57H374.19V64.85H384.9V74.57ZM381.3 101.48C375.18 101.48 374.19 100.76 374.19 96.35V83.84H393.9C394.62 86.18 395.07 88.7 395.25 90.68C398.76 90.77 402 90.68 404.16 90.23C406.5 89.69 408.12 88.79 409.83 86.27C412.17 82.85 412.8 71.87 413.34 43.16C413.43 41.81 413.43 38.57 413.43 38.57H377.88C379.05 35.87 380.13 33.08 381.03 30.29L370.5 27.68C367.08 38.48 360.96 49.37 353.58 55.94C356.19 57.38 360.78 60.71 362.76 62.51L363.75 61.43V96.44C363.75 108.14 367.71 111.29 380.49 111.29H401.28C412.62 111.29 415.68 107.42 417.21 94.01C414.33 93.38 409.83 91.58 407.4 90.05C406.68 99.68 405.87 101.48 400.47 101.48H381.3Z" fill="#404040"/>
<path d="M235.914 183H250.17C258.972 183 265.668 179.274 265.668 171.228C265.668 165.828 262.482 162.804 258.162 161.778V161.508C261.564 160.32 263.616 156.54 263.616 152.868C263.616 145.416 257.352 142.986 249.144 142.986H235.914V183ZM243.906 159.294V149.142H248.658C253.464 149.142 255.84 150.546 255.84 154.056C255.84 157.242 253.626 159.294 248.55 159.294H243.906ZM243.906 176.844V165.18H249.468C254.976 165.18 257.892 166.854 257.892 170.742C257.892 174.9 254.922 176.844 249.468 176.844H243.906ZM281.04 183.756C285.144 183.756 288.06 181.758 290.652 178.68H290.868L291.462 183H297.942V152.76H290.004V173.172C287.952 175.872 286.332 176.952 283.848 176.952C280.932 176.952 279.636 175.278 279.636 170.634V152.76H271.698V171.66C271.698 179.22 274.506 183.756 281.04 183.756ZM321.579 183.756C328.221 183.756 334.431 177.762 334.431 167.34C334.431 158.106 329.949 152.004 322.497 152.004C319.527 152.004 316.503 153.462 314.127 155.622L314.343 150.762V139.908H306.405V183H312.615L313.317 179.814H313.533C315.963 182.352 318.879 183.756 321.579 183.756ZM319.797 177.222C318.177 177.222 316.233 176.628 314.343 174.954V161.67C316.395 159.564 318.231 158.538 320.283 158.538C324.441 158.538 326.277 161.724 326.277 167.502C326.277 174.09 323.469 177.222 319.797 177.222ZM356.331 183.756C362.973 183.756 369.183 177.762 369.183 167.34C369.183 158.106 364.701 152.004 357.249 152.004C354.279 152.004 351.255 153.462 348.879 155.622L349.095 150.762V139.908H341.157V183H347.367L348.069 179.814H348.285C350.715 182.352 353.631 183.756 356.331 183.756ZM354.549 177.222C352.929 177.222 350.985 176.628 349.095 174.954V161.67C351.147 159.564 352.983 158.538 355.035 158.538C359.193 158.538 361.029 161.724 361.029 167.502C361.029 174.09 358.221 177.222 354.549 177.222ZM383.361 183.756C385.251 183.756 386.547 183.432 387.465 183.054L386.493 177.168C385.953 177.276 385.737 177.276 385.413 177.276C384.657 177.276 383.847 176.682 383.847 174.846V139.908H375.909V174.522C375.909 180.138 377.853 183.756 383.361 183.756ZM406.118 183.756C409.844 183.756 413.678 182.46 416.648 180.408L413.948 175.548C411.788 176.898 409.628 177.654 407.144 177.654C402.662 177.654 399.422 175.062 398.774 170.094H417.404C417.62 169.392 417.782 167.934 417.782 166.422C417.782 158.106 413.462 152.004 405.146 152.004C397.964 152.004 391.052 158.106 391.052 167.88C391.052 177.87 397.64 183.756 406.118 183.756ZM398.666 164.802C399.26 160.428 402.068 158.16 405.254 158.16C409.142 158.16 410.978 160.752 410.978 164.802H398.666Z" fill="#404040"/>
<path d="M0 70.3456C0 51.5926 15.1979 36.3903 33.9454 36.3903H50.4594C69.2069 36.3903 84.4048 51.5926 84.4048 70.3456V86.8645C84.4048 105.617 69.2069 120.82 50.4594 120.82H33.9454C15.1979 120.82 0 105.617 0 86.8645V70.3456Z" fill="#80E6E8"/>
<path d="M98.552 45.9553C98.552 27.2023 113.75 12 132.497 12C151.245 12 166.443 27.2023 166.443 45.9553C166.443 64.7083 151.245 79.9107 132.497 79.9107C113.75 79.9107 98.552 64.7083 98.552 45.9553Z" fill="#80E6E8"/>
<path d="M85.2557 138.114C85.2557 112.772 105.793 92.2288 131.128 92.2288C156.462 92.2288 177 112.772 177 138.114C177 163.456 156.462 184 131.128 184C105.793 184 85.2557 163.456 85.2557 138.114Z" fill="#80E6E8"/>
</svg>
