<svg width="177" height="172" viewBox="0 0 177 172" fill="none" xmlns="http://www.w3.org/2000/svg">
<path d="M0 58.3456C0 39.5926 15.1979 24.3903 33.9454 24.3903H50.4594C69.2069 24.3903 84.4048 39.5926 84.4048 58.3456V74.8645C84.4048 93.6175 69.2069 108.82 50.4594 108.82H33.9454C15.1979 108.82 0 93.6175 0 74.8645V58.3456Z" fill="#80E6E8"/>
<path d="M98.552 33.9553C98.552 15.2023 113.75 0 132.497 0C151.245 0 166.443 15.2023 166.443 33.9553C166.443 52.7083 151.245 67.9107 132.497 67.9107C113.75 67.9107 98.552 52.7083 98.552 33.9553Z" fill="#80E6E8"/>
<path d="M85.2557 126.114C85.2557 100.772 105.793 80.2288 131.128 80.2288C156.462 80.2288 177 100.772 177 126.114C177 151.456 156.462 172 131.128 172C105.793 172 85.2557 151.456 85.2557 126.114Z" fill="#80E6E8"/>
</svg>
